<svg width="128" height="124" viewBox="0 0 128 124" fill="none" xmlns="http://www.w3.org/2000/svg">
<path d="M46.153 107.457L40.5808 117.994L37.1296 116.169C36.0358 115.591 35.2053 114.868 34.6382 114.001C34.0566 113.139 33.7536 112.194 33.7293 111.168C33.705 110.141 33.9695 109.105 34.523 108.058C35.0715 107.021 35.7793 106.219 36.6463 105.651C37.5083 105.094 38.462 104.808 39.5073 104.793C40.5431 104.774 41.608 105.054 42.7018 105.632L46.153 107.457ZM43.6986 108.059L41.8881 107.102C41.1432 106.708 40.415 106.522 39.7036 106.544C38.9827 106.561 38.3218 106.773 37.7209 107.179C37.1199 107.585 36.615 108.175 36.2062 108.948C35.7973 109.721 35.6013 110.468 35.6183 111.189C35.6209 111.915 35.8134 112.577 36.1957 113.178C36.5781 113.778 37.1417 114.275 37.8867 114.669L39.6971 115.627L43.6986 108.059Z" fill="white"/>
<path d="M32.6964 98.8207L26.8094 105.166L25.4839 103.937L31.371 97.591L32.6964 98.8207ZM26.0041 106.034L24.5895 107.559L23.264 106.33L24.6787 104.805L26.0041 106.034Z" fill="white"/>
<path d="M25.2944 90.078C25.7881 90.8129 26.0409 91.5812 26.0526 92.3828C26.0584 93.1757 25.8301 93.888 25.3679 94.5198L24.0471 93.7301C24.3236 93.2617 24.4683 92.779 24.4813 92.2819C24.4884 91.776 24.3521 91.315 24.0726 90.8988C23.8346 90.5447 23.5616 90.3105 23.2535 90.1962C22.9455 90.0819 22.6542 90.117 22.3797 90.3014C22.2026 90.4203 22.0937 90.5642 22.0528 90.733C22.0032 90.9077 21.9935 91.0941 22.0238 91.2922C22.0481 91.4815 22.0931 91.6632 22.1588 91.8376L22.5985 93.1806C22.8378 93.9194 22.8845 94.5626 22.7385 95.1105C22.5777 95.6554 22.2583 96.0885 21.7802 96.4097C21.3463 96.7011 20.8957 96.8433 20.4282 96.8361C19.9519 96.8348 19.4943 96.6988 19.0555 96.4282C18.6167 96.1576 18.2337 95.7788 17.9066 95.2919C17.4664 94.6366 17.2376 93.9422 17.2202 93.2086C17.1939 92.4809 17.3972 91.8175 17.8299 91.2184L19.1507 92.008C18.9006 92.3817 18.7778 92.7918 18.7824 93.2385C18.781 93.6764 18.9081 94.0857 19.1639 94.4664C19.384 94.794 19.6392 95.0017 19.9294 95.0894C20.2108 95.1831 20.4754 95.1466 20.7234 94.9801C20.8916 94.8671 21.0035 94.7276 21.0591 94.5617C21.1059 94.4018 21.1171 94.2272 21.0928 94.038C21.0596 93.8547 21.0145 93.6729 20.9577 93.4926L20.5178 92.0919C20.2875 91.3857 20.2468 90.7512 20.3957 90.1886C20.5357 89.6319 20.8536 89.187 21.3495 88.8539C21.7745 88.5684 22.2281 88.4307 22.7103 88.4408C23.1778 88.448 23.6383 88.5884 24.0919 88.8619C24.5367 89.1414 24.9375 89.5467 25.2944 90.078Z" fill="white"/>
<path d="M19.2796 77.5151C19.5348 78.3405 19.5732 79.1325 19.3946 79.8911C19.2028 80.6427 18.839 81.3078 18.3034 81.8866C17.7646 82.4551 17.0826 82.867 16.2571 83.1222C15.4419 83.3743 14.6514 83.4178 13.8858 83.2526C13.1201 83.0874 12.4546 82.7405 11.8893 82.2119C11.3137 81.6865 10.8983 81.0111 10.643 80.1857C10.4697 79.6252 10.4093 79.0688 10.4619 78.5167C10.5043 77.9677 10.6435 77.4612 10.8797 76.9974C11.1128 76.5234 11.4318 76.1289 11.8368 75.8139L13.0079 77.1097C12.6335 77.4153 12.3787 77.8011 12.2437 78.2672C12.0953 78.7261 12.0968 79.2002 12.248 79.6894C12.393 80.1581 12.641 80.5448 12.9919 80.8494C13.3296 81.1469 13.7404 81.3381 14.2244 81.4229C14.6982 81.5108 15.1949 81.4745 15.7146 81.3138C16.2344 81.1531 16.67 80.9011 17.0217 80.5579C17.3631 80.2179 17.5943 79.8282 17.7153 79.3888C17.8331 78.9393 17.8195 78.4801 17.6745 78.0114C17.5201 77.512 17.2588 77.1183 16.8906 76.8302C16.5091 76.5351 16.0708 76.3636 15.5759 76.3157L15.8264 74.5802C16.315 74.6078 16.7944 74.7498 17.2645 75.0064C17.7213 75.2559 18.1272 75.5938 18.4823 76.0199C18.8373 76.446 19.1031 76.9444 19.2796 77.5151Z" fill="white"/>
<path d="M17.253 63.6471C17.2431 64.479 17.0367 65.2393 16.6338 65.9279C16.2311 66.6058 15.686 67.1433 14.9985 67.5405C14.3111 67.9377 13.5354 68.1312 12.6715 68.1209C11.7969 68.1105 11.026 67.8987 10.3589 67.4854C9.68107 67.072 9.15424 66.5217 8.77838 65.8345C8.39186 65.1472 8.2036 64.3822 8.21362 63.5396C8.22377 62.6863 8.43015 61.9261 8.83278 61.2588C9.22487 60.5807 9.76457 60.0485 10.4519 59.6619C11.1286 59.2646 11.9043 59.0712 12.7789 59.0816C13.6535 59.092 14.4297 59.3039 15.1075 59.7173C15.7853 60.1307 16.3175 60.6811 16.704 61.3684C17.0799 62.0556 17.2629 62.8151 17.253 63.6471ZM15.5731 63.6271C15.5792 63.1151 15.4619 62.6604 15.2213 62.2628C14.9807 61.8653 14.6484 61.552 14.2244 61.3229C13.7899 61.083 13.3006 60.9599 12.7567 60.9534C12.2127 60.947 11.726 61.0585 11.2966 61.2881C10.8673 61.507 10.5277 61.8123 10.2776 62.204C10.0276 62.5958 9.89959 63.0476 9.8935 63.5596C9.88754 64.0609 10.0048 64.5156 10.2453 64.9238C10.4859 65.3214 10.8182 65.64 11.242 65.8798C11.666 66.1088 12.15 66.2266 12.6939 66.233C13.2379 66.2395 13.7298 66.1334 14.1698 65.9146C14.5992 65.685 14.939 65.3743 15.189 64.9826C15.4391 64.5802 15.5671 64.1284 15.5731 63.6271Z" fill="white"/>
<path d="M19.0518 50.4074L9.77159 50.9636L10.3787 49.0916L17.8951 48.7875L17.673 49.4724L11.7657 44.8148L12.3778 42.9276L19.5602 48.8397L19.0518 50.4074Z" fill="white"/>
<path d="M25.5861 37.3625C25.0945 38.073 24.4953 38.5923 23.7883 38.9203C23.0787 39.2335 22.337 39.3494 21.5632 39.268C20.7806 39.1805 20.0385 38.894 19.3367 38.4084C18.6174 37.9108 18.0877 37.3172 17.7475 36.6279C17.4134 35.9297 17.2705 35.2083 17.3189 34.4635C17.3585 33.7126 17.6089 33.0039 18.0702 32.3372C18.4404 31.8021 18.8633 31.3878 19.3388 31.0942C19.8144 30.8006 20.3145 30.6214 20.8394 30.5565C21.3554 30.4855 21.8712 30.5181 22.3866 30.6542C22.9082 30.7816 23.4014 31.0061 23.8663 31.3278C23.9803 31.4067 24.0957 31.493 24.2124 31.5868C24.3291 31.6805 24.431 31.7769 24.5181 31.8761L20.5943 37.547L19.4101 36.7276L22.7513 31.8988L22.7991 32.9826C22.43 32.5975 22.0272 32.3642 21.5907 32.2826C21.1515 32.1863 20.7322 32.2205 20.3329 32.3852C19.9309 32.5351 19.5933 32.8074 19.3202 33.2021C19.047 33.5968 18.9052 34.0175 18.8945 34.4641C18.875 34.9046 18.9919 35.3356 19.2449 35.7572C19.4893 36.1727 19.8823 36.542 20.4241 36.865C20.8762 37.2426 21.3428 37.4682 21.8238 37.5416C22.3109 37.6062 22.7676 37.546 23.1939 37.3611C23.6263 37.1674 23.9882 36.86 24.2795 36.4389C24.5769 36.0091 24.7323 35.5783 24.7456 35.1466C24.7651 34.706 24.682 34.2919 24.4964 33.904L25.926 33.1032C26.1622 33.4742 26.3131 33.9028 26.3787 34.3892C26.4415 34.8608 26.4093 35.3573 26.2819 35.8788C26.1519 36.3855 25.9199 36.88 25.5861 37.3625Z" fill="white"/>
<path d="M32.0557 29.5827L26.4527 22.9847L27.7699 21.8662L28.8988 23.1956L28.6111 23.104C28.3915 22.5488 28.3649 22.0396 28.5314 21.5764C28.6909 21.1051 28.9983 20.6761 29.4536 20.2895L29.8561 19.9477L30.9228 21.2039L30.3496 21.6907C29.8943 22.0773 29.6452 22.5337 29.6023 23.06C29.5606 23.5712 29.7607 24.0869 30.2025 24.6073L33.4338 28.4124L32.0557 29.5827Z" fill="white"/>
<path d="M47.0078 19.9509L44.1584 8.37651L45.8674 7.95579L51.7015 12.9129L50.847 13.1233L53.6355 6.04346L55.3444 5.62274L58.1938 17.1972L56.3761 17.6447L54.0583 8.22975L54.7878 8.2479L51.8909 15.2885L51.7044 15.3344L45.9633 10.4203L46.5233 10.0847L48.8411 19.4996L47.0078 19.9509Z" fill="white"/>
<path d="M68.6452 17.6645C67.8183 17.5727 67.082 17.2924 66.4365 16.8236C65.8016 16.3559 65.3204 15.7605 64.9929 15.0372C64.6654 14.314 64.5494 13.523 64.6448 12.6643C64.7413 11.795 65.0281 11.0488 65.5052 10.4256C65.9834 9.79187 66.583 9.32186 67.3039 9.01558C68.0259 8.6987 68.8057 8.58677 69.6432 8.67981C70.4914 8.77402 71.2276 9.05435 71.8519 9.5208C72.488 9.97782 72.9645 10.5674 73.2814 11.2894C73.61 12.0021 73.7261 12.7931 73.6295 13.6624C73.5329 14.5317 73.2455 15.2832 72.7673 15.917C72.2891 16.5507 71.6889 17.026 70.9669 17.3429C70.246 17.6492 69.4721 17.7564 68.6452 17.6645ZM68.8306 15.9948C69.3395 16.0513 69.8036 15.9795 70.223 15.7792C70.6423 15.579 70.9868 15.2792 71.2566 14.8798C71.5381 14.4711 71.7089 13.9964 71.7689 13.4557C71.829 12.915 71.766 12.4197 71.5799 11.9697C71.4043 11.5209 71.134 11.1529 70.7688 10.8654C70.4036 10.578 69.9666 10.4061 69.4578 10.3495C68.9595 10.2942 68.4954 10.3661 68.0654 10.5651C67.6461 10.7654 67.2963 11.0646 67.0159 11.4628C66.7462 11.8621 66.5813 12.3321 66.5212 12.8728C66.4612 13.4134 66.5183 13.9135 66.6927 14.3729C66.8788 14.8228 67.1544 15.1915 67.5196 15.4789C67.8954 15.7675 68.3324 15.9395 68.8306 15.9948Z" fill="white"/>
<path d="M79.3934 19.8631L82.6216 11.8316L84.2249 12.4761L83.5745 14.0943L83.5215 13.7971C83.9105 13.3441 84.3487 13.0834 84.8361 13.0149C85.3274 12.9365 85.8502 13.0087 86.4045 13.2314L86.8944 13.4284L86.2798 14.9575L85.582 14.677C85.0278 14.4542 84.5078 14.4464 84.0222 14.6536C83.5505 14.8548 83.1873 15.2722 82.9327 15.9056L81.0709 20.5374L79.3934 19.8631Z" fill="white"/>
<path d="M91.791 26.7913C91.0999 26.2728 90.604 25.654 90.3033 24.935C90.0176 24.2139 89.9303 23.4683 90.0413 22.6982C90.1588 21.9195 90.4736 21.1889 90.9857 20.5064C91.5106 19.8067 92.1241 19.3002 92.826 18.9867C93.5364 18.6796 94.2629 18.5645 95.0052 18.6415C95.754 18.7099 96.4527 18.9873 97.1011 19.4738C97.6216 19.8643 98.0194 20.3028 98.2945 20.7892C98.5696 21.2757 98.7295 21.7824 98.7742 22.3093C98.8253 22.8277 98.7729 23.3419 98.6171 23.8517C98.4698 24.3679 98.2265 24.8522 97.8873 25.3044C97.804 25.4153 97.7134 25.5273 97.6152 25.6403C97.5171 25.7534 97.4168 25.8515 97.3144 25.9347L91.7983 21.7961L92.6625 20.6442L97.3595 24.1683L96.2747 24.1745C96.6737 23.8204 96.9223 23.4269 97.0205 22.9938C97.1336 22.5586 97.1156 22.1384 96.9663 21.733C96.832 21.3255 96.5728 20.9777 96.1889 20.6897C95.8049 20.4016 95.39 20.2437 94.9442 20.2159C94.5047 20.1795 94.0695 20.2797 93.6385 20.5164C93.2139 20.7446 92.8299 21.1232 92.4863 21.6522C92.0916 22.0895 91.8483 22.547 91.7565 23.0249C91.6732 23.5091 91.7158 23.9678 91.8842 24.4009C92.0612 24.8404 92.3545 25.2138 92.764 25.5211C93.1821 25.8347 93.6066 26.0066 94.0375 26.0365C94.477 26.0728 94.8941 26.0057 95.2888 25.8351L96.0341 27.2944C95.6543 27.5162 95.2202 27.6506 94.7316 27.6974C94.258 27.7421 93.7631 27.6908 93.2469 27.5436C92.7456 27.3941 92.2603 27.1434 91.791 26.7913Z" fill="white"/>
<path d="M103.449 38.5921L116.014 37.2528L117.018 39.362L108.058 48.271L107.191 46.4508L109.211 44.4788L107.127 40.1016L104.316 40.4123L103.449 38.5921ZM108.878 39.8705L110.481 43.2365L115.207 38.6472L115.434 39.1239L108.878 39.8705Z" fill="white"/>
<path d="M110.024 58.8899C109.948 58.2222 110.017 57.5971 110.231 57.0149C110.445 56.4432 110.795 55.9796 111.281 55.6242L111.638 55.7931L109.89 55.9907L109.696 54.2736L121.731 52.9143L121.934 54.7109L116.719 55.2998L117.1 54.967C117.624 55.2299 118.053 55.6108 118.389 56.1096C118.724 56.6084 118.93 57.197 119.007 57.8754C119.099 58.6915 118.985 59.445 118.666 60.1359C118.348 60.8373 117.871 61.4118 117.235 61.8594C116.599 62.3176 115.858 62.5946 115.01 62.6904C114.162 62.7861 113.377 62.6815 112.656 62.3766C111.935 62.0822 111.337 61.6345 110.862 61.0334C110.396 60.4312 110.117 59.7167 110.024 58.8899ZM111.673 58.5265C111.731 59.0353 111.904 59.472 112.192 59.8366C112.48 60.2012 112.848 60.4709 113.297 60.6456C113.758 60.8297 114.259 60.8912 114.8 60.8302C115.34 60.7691 115.809 60.5981 116.207 60.317C116.606 60.0465 116.905 59.7015 117.104 59.2818C117.304 58.862 117.375 58.3978 117.318 57.889C117.261 57.3909 117.089 56.9542 116.799 56.5789C116.511 56.2143 116.142 55.9393 115.692 55.754C115.243 55.5793 114.748 55.5225 114.207 55.5835C113.667 55.6446 113.192 55.811 112.782 56.0826C112.385 56.3637 112.086 56.7141 111.886 57.1338C111.688 57.5641 111.617 58.0283 111.673 58.5265Z" fill="white"/>
<path d="M109.33 73.3709C109.495 72.5553 109.84 71.8468 110.364 71.2454C110.886 70.6544 111.521 70.2278 112.271 69.9657C113.02 69.7035 113.818 69.658 114.665 69.8291C115.523 70.0022 116.241 70.354 116.819 70.8844C117.408 71.4169 117.823 72.0557 118.064 72.8009C118.316 73.5482 118.358 74.3348 118.191 75.1608C118.023 75.9972 117.678 76.7057 117.158 77.2863C116.647 77.8794 116.017 78.3018 115.27 78.5535C114.531 78.8177 113.733 78.8633 112.875 78.6901C112.018 78.5169 111.295 78.1641 110.706 77.6316C110.117 77.0991 109.697 76.4592 109.445 75.7119C109.204 74.9667 109.166 74.1864 109.33 73.3709ZM110.977 73.7035C110.876 74.2054 110.906 74.674 111.069 75.1094C111.231 75.5449 111.499 75.9146 111.873 76.2187C112.255 76.5353 112.713 76.7474 113.246 76.8551C113.779 76.9629 114.278 76.9439 114.743 76.7984C115.206 76.6633 115.596 76.4266 115.915 76.0884C116.233 75.7501 116.443 75.33 116.545 74.8281C116.644 74.3367 116.614 73.8681 116.453 73.4222C116.291 72.9868 116.024 72.6118 115.652 72.2973C115.278 71.9933 114.825 71.7874 114.292 71.6797C113.758 71.572 113.255 71.5846 112.782 71.7176C112.317 71.8631 111.926 72.105 111.607 72.4433C111.286 72.792 111.076 73.2121 110.977 73.7035Z" fill="white"/>
<path d="M104.99 85.5277C105.303 84.9571 105.703 84.5257 106.191 84.2337C106.689 83.9468 107.234 83.8072 107.825 83.8151C108.421 83.8374 109.023 84.015 109.631 84.3481L114.318 86.915L113.45 88.5008L108.903 86.0107C108.557 85.8211 108.215 85.7247 107.876 85.7216C107.537 85.7185 107.224 85.8022 106.936 85.9729C106.657 86.1486 106.428 86.4002 106.249 86.7276C106.064 87.0644 105.978 87.4001 105.989 87.7347C106 88.0693 106.103 88.381 106.298 88.67C106.487 88.9682 106.764 89.2173 107.129 89.4171L111.606 91.8688L110.745 93.4405L103.153 89.2827L103.975 87.7811L105.463 88.5958L105.174 88.6566C104.803 88.2226 104.605 87.7307 104.578 87.1807C104.55 86.6307 104.688 86.0797 104.99 85.5277Z" fill="white"/>
<path d="M96.3055 97.3247C96.9577 96.6948 97.6419 96.3899 98.3582 96.4098C99.0745 96.4298 99.755 96.7736 100.4 97.4411L103.312 100.456L104.405 99.4003L105.539 100.574L105.366 100.741C105.075 101.023 104.93 101.326 104.932 101.65C104.934 101.974 105.076 102.282 105.357 102.574L105.824 103.057L104.524 104.313L103.145 102.886L101.73 104.253L100.596 103.08L102.012 101.712L99.1548 98.7547C98.9473 98.5398 98.735 98.389 98.5177 98.3023C98.3078 98.2232 98.0854 98.2156 97.8505 98.2794C97.6229 98.3509 97.3864 98.5052 97.1409 98.7423C97.0795 98.8016 97.0142 98.8721 96.9449 98.9539C96.8755 99.0357 96.8101 99.1137 96.7484 99.1881L95.6702 98.0718C95.7628 97.9527 95.8669 97.8225 95.9825 97.6812C96.0981 97.5399 96.2058 97.421 96.3055 97.3247Z" fill="white"/>
</svg>
