<svg width="231" height="46" viewBox="0 0 231 46" fill="none" xmlns="http://www.w3.org/2000/svg">
<path d="M0 45L8.0625 8.625H9L12.75 26.125L8.625 45H0ZM13.3125 39.6875L15.1875 31.0625H17.4375L10.8125 1.25H19.5L29.8125 45H21.0625L19.8125 39.6875H13.3125ZM33.6 45V1.25H42.4125V36.25H57.1V45H33.6ZM60.6375 45V1.25H69.45V36.25H84.1375V45H60.6375ZM94.85 45V1.25H103.662V45H94.85ZM108.888 45V14.25H109.388L117.7 27.625V45H108.888ZM108.888 7V1.25H116.075L136.7 34.5V45H132.513L108.888 7ZM127.888 13.875V1.25H136.7V27.25H136.2L127.888 13.875ZM148.85 32.8125V12.25C148.85 10.0417 149.788 7.79167 151.663 5.5C154.163 2.5 157.329 0.979167 161.163 0.9375V9.75C159.454 9.79167 158.329 10.75 157.788 12.625C157.704 12.9167 157.663 13.125 157.663 13.25V32.8125C157.663 34.5208 158.6 35.6875 160.475 36.3125C160.767 36.3958 160.975 36.4375 161.1 36.4375V45.3125C158.725 45.3125 156.35 44.4583 153.975 42.75C150.6 40.25 148.892 36.9375 148.85 32.8125ZM164.538 45.3125V36.4375C165.204 36.4375 165.954 36.0833 166.788 35.375C167.579 34.6667 167.996 33.8125 168.038 32.8125V13.25C168.038 12.5 167.683 11.7083 166.975 10.875C166.308 10.1667 165.496 9.79167 164.538 9.75V0.9375C168.746 0.9375 172.121 2.75 174.663 6.375C176.121 8.45833 176.85 10.4167 176.85 12.25V32.8125C176.85 37.4375 174.788 40.9792 170.663 43.4375C168.496 44.6875 166.454 45.3125 164.538 45.3125ZM181.825 45V14.25H182.325L190.637 27.625V45H181.825ZM181.825 7V1.25H189.012L209.637 34.5V45H205.45L181.825 7ZM200.825 13.875V1.25H209.637V27.25H209.137L200.825 13.875ZM207.688 45V1.25H230.438V10H216.5V18.875H224.562V27.6875H216.5V36.1875H230.438V45H207.688Z" fill="#42FB14"/>
</svg>
