<svg width="18" height="19" viewBox="0 0 18 19" fill="none" xmlns="http://www.w3.org/2000/svg">
<g id="Instagram">
<path id="Vector" d="M13 1.33325H5C2.79086 1.33325 1 3.12411 1 5.33325V13.3333C1 15.5424 2.79086 17.3333 5 17.3333H13C15.2091 17.3333 17 15.5424 17 13.3333V5.33325C17 3.12411 15.2091 1.33325 13 1.33325Z" stroke="white" stroke-width="2" stroke-linecap="round" stroke-linejoin="round"/>
<path id="Vector_2" d="M12.2971 8.84439C12.4 9.53793 12.2815 10.2462 11.9586 10.8686C11.6357 11.4909 11.1247 11.9956 10.4985 12.3108C9.8722 12.626 9.16249 12.7357 8.47027 12.6243C7.77805 12.5129 7.13858 12.1861 6.64282 11.6904C6.14705 11.1946 5.82023 10.5551 5.70884 9.8629C5.59746 9.17068 5.70717 8.46097 6.02239 7.8347C6.33761 7.20844 6.84227 6.69751 7.4646 6.37459C8.08694 6.05168 8.79524 5.93322 9.48878 6.03606C10.1962 6.14096 10.8512 6.47061 11.3569 6.97631C11.8626 7.48201 12.1922 8.13695 12.2971 8.84439Z" stroke="white" stroke-width="2" stroke-linecap="round" stroke-linejoin="round"/>
</g>
</svg>
