<svg width="18" height="18" viewBox="0 0 18 18" fill="none" xmlns="http://www.w3.org/2000/svg">
<g id="LinkedIn">
<path id="Vector" d="M12.3332 5.66675C13.5708 5.66675 14.7578 6.18543 15.633 7.10868C16.5082 8.03194 16.9998 9.28414 16.9998 10.5898V16.3334H13.8887V10.5898C13.8887 10.1546 13.7248 9.7372 13.4331 9.42945C13.1414 9.12169 12.7457 8.9488 12.3332 8.9488C11.9206 8.9488 11.525 9.12169 11.2332 9.42945C10.9415 9.7372 10.7776 10.1546 10.7776 10.5898V16.3334H7.6665V10.5898C7.6665 9.28414 8.15817 8.03194 9.03334 7.10868C9.90851 6.18543 11.0955 5.66675 12.3332 5.66675Z" fill="white" stroke="white" stroke-width="2" stroke-linecap="round" stroke-linejoin="round"/>
<path id="Vector_2" d="M4.33333 6.33325H1V16.3333H4.33333V6.33325Z" fill="white" stroke="white" stroke-width="2" stroke-linecap="round" stroke-linejoin="round"/>
<path id="Vector_3" d="M2.66667 4.33333C3.58714 4.33333 4.33333 3.58714 4.33333 2.66667C4.33333 1.74619 3.58714 1 2.66667 1C1.74619 1 1 1.74619 1 2.66667C1 3.58714 1.74619 4.33333 2.66667 4.33333Z" fill="white" stroke="white" stroke-width="2" stroke-linecap="round" stroke-linejoin="round"/>
</g>
</svg>
